<svg width="1020" height="206" viewBox="0 0 1020 206" fill="none" xmlns="http://www.w3.org/2000/svg">
<path d="M32.6439 70.0893L71.6732 168.288L110.704 70.0893H141.781L86.3426 202.845H56.7572L0.571899 70.0893H32.6439" fill="white"/>
<path d="M177.439 122.792H247.048C246.053 104.148 231.386 92.712 212.492 92.712C194.344 92.712 180.172 104.645 177.439 122.792ZM175.945 145.168C176.196 155.112 180.172 163.316 187.879 170.028C195.588 176.492 204.536 179.724 214.73 179.724C231.386 179.724 243.318 172.765 250.53 159.091L271.909 173.26C260.721 193.893 239.092 205.332 215.226 205.332C195.588 205.332 178.931 198.868 165.505 185.691C152.328 172.513 145.616 155.857 145.616 136.22C145.616 117.076 152.08 100.915 164.758 87.4919C177.438 74.0666 193.349 67.3546 212.492 67.3546C232.63 67.3546 248.54 73.5679 259.977 86.2479C271.412 98.9266 277.131 115.335 277.131 135.969C277.131 139.947 276.881 142.932 276.633 145.168H175.945" fill="white"/>
<path d="M375.984 99.9226C373.497 99.4239 370.763 99.176 367.532 99.176C344.908 99.176 332.975 112.353 332.975 135.471V202.845H303.391V70.0893H332.229V91.2213C340.433 76.3026 352.616 68.8453 368.773 68.8453C372.007 68.8453 374.244 69.0933 375.984 69.5919V99.9226" fill="white"/>
<path d="M423.919 202.845H394.334V70.0893H423.919V202.845ZM395.329 13.4053C403.035 5.44931 414.969 5.44931 422.676 13.4053C430.382 21.112 430.382 33.0467 422.676 40.7547C414.969 48.4587 403.035 48.4587 395.329 40.7547C387.623 33.0467 387.623 21.112 395.329 13.4053Z" fill="white"/>
<path d="M509.705 175.871C498.757 175.871 488.843 171.432 481.667 164.257C474.491 157.081 470.053 147.167 470.053 136.219C470.053 125.269 474.491 115.355 481.667 108.18C488.843 101.003 498.757 96.5654 509.705 96.5654C520.655 96.5654 530.568 101.003 537.744 108.18L558.4 87.524C545.937 75.0613 528.721 67.3547 509.705 67.3547C490.689 67.3547 473.475 75.0627 461.012 87.524C448.549 99.9867 440.843 117.203 440.843 136.219C440.843 155.233 448.551 172.449 461.012 184.912C473.475 197.375 490.689 205.081 509.705 205.081C528.721 205.081 545.937 197.375 558.4 184.912L537.744 164.257C530.568 171.432 520.655 175.871 509.705 175.871Z" fill="white"/>
<path d="M763.534 106.384C756.324 114.589 752.594 124.535 752.594 136.22C752.594 147.903 756.324 157.847 763.534 166.051C770.99 174.005 780.689 177.983 792.372 177.983C804.056 177.983 813.755 174.005 820.963 166.051C828.421 157.847 832.149 147.903 832.149 136.22C832.149 124.535 828.421 114.589 820.963 106.384C813.504 98.18 804.056 94.2027 792.372 94.2027C780.689 94.2027 770.99 98.18 763.534 106.384ZM740.661 88.4866C752.844 74.5613 769.003 67.6027 788.644 67.6027C795.855 67.6027 803.56 69.3427 812.012 73.0707C820.713 76.5547 827.177 81.772 831.653 88.9827V0.478703H861.237V202.845H832.399V182.212C827.676 189.916 820.962 195.635 811.764 199.365C802.813 203.093 794.859 204.833 787.899 204.833C769.252 204.833 753.59 198.121 741.158 184.447C728.729 170.776 722.513 154.613 722.513 136.22C722.513 118.317 728.48 102.405 740.661 88.4866Z" fill="white"/>
<path d="M919.546 122.792H989.156C988.162 104.148 973.494 92.712 954.6 92.712C936.452 92.712 922.281 104.645 919.546 122.792ZM918.055 145.168C918.304 155.112 922.281 163.316 929.987 170.028C937.695 176.492 946.644 179.724 956.838 179.724C973.494 179.724 985.428 172.765 992.638 159.091L1014.02 173.26C1002.83 193.893 981.201 205.332 957.334 205.332C937.694 205.332 921.038 198.868 907.613 185.691C894.436 172.513 887.725 155.857 887.725 136.22C887.725 117.076 894.188 100.915 906.868 87.4919C919.546 74.0666 935.457 67.3546 954.6 67.3546C974.738 67.3546 990.649 73.5679 1002.08 86.2479C1013.52 98.9266 1019.24 115.335 1019.24 135.969C1019.24 139.947 1018.99 142.932 1018.74 145.168H918.055" fill="white"/>
<path d="M636.556 175.871V205.081C655.572 205.081 672.788 197.373 685.251 184.912L664.593 164.257C657.42 171.432 647.505 175.871 636.556 175.871Z" fill="#FE0F62"/>
<path d="M608.517 164.257L587.863 184.912C600.324 197.373 617.539 205.081 636.556 205.081V175.871C625.605 175.871 615.693 171.432 608.517 164.257Z" fill="white"/>
<path d="M685.251 87.524C672.788 75.0614 655.572 67.3547 636.556 67.3547C617.539 67.3547 600.324 75.0627 587.863 87.524C575.4 99.9867 567.693 117.203 567.693 136.219H596.904C596.904 125.269 601.343 115.355 608.517 108.179C615.693 101.004 625.605 96.5654 636.556 96.5654C647.505 96.5654 657.42 101.004 664.593 108.179C671.769 115.356 676.208 125.269 676.208 136.219H705.42C705.42 117.203 697.712 99.9867 685.251 87.524" fill="white"/>
</svg>
